<mxfile host="app.diagrams.net" modified="2023-05-25T18:30:43.815Z" agent="Mozilla/5.0 (Macintosh; Intel Mac OS X 10_15_7) AppleWebKit/537.36 (KHTML, like Gecko) Chrome/113.0.0.0 Safari/537.36" etag="1Y8f7H13e3URuPcZQ1I1" version="21.3.2" type="device">
  <diagram name="Page-1" id="_d1mRB3KuaB-NEBDW18h">
    <mxGraphModel dx="954" dy="610" grid="1" gridSize="10" guides="1" tooltips="1" connect="1" arrows="1" fold="1" page="1" pageScale="1" pageWidth="827" pageHeight="1169" math="0" shadow="0">
      <root>
        <mxCell id="0" />
        <mxCell id="1" parent="0" />
        <mxCell id="fg_MT1BBQ9zyIC7BIO2O-3" value="" style="strokeWidth=1;shadow=0;dashed=0;align=center;html=1;shape=mxgraph.mockup.containers.browserWindow;rSize=0;strokeColor=#666666;strokeColor2=#008cff;strokeColor3=#c4c4c4;mainText=,;recursiveResize=0;" vertex="1" parent="1">
          <mxGeometry x="50" y="40" width="766.84" height="529.82" as="geometry" />
        </mxCell>
        <mxCell id="fg_MT1BBQ9zyIC7BIO2O-4" value="RecoMusic | L" style="strokeWidth=1;shadow=0;dashed=0;align=center;html=1;shape=mxgraph.mockup.containers.anchor;fontSize=17;fontColor=#666666;align=left;whiteSpace=wrap;" vertex="1" parent="fg_MT1BBQ9zyIC7BIO2O-3">
          <mxGeometry x="60" y="12" width="110" height="26" as="geometry" />
        </mxCell>
        <mxCell id="fg_MT1BBQ9zyIC7BIO2O-5" value="Recomusic.com/login" style="strokeWidth=1;shadow=0;dashed=0;align=center;html=1;shape=mxgraph.mockup.containers.anchor;rSize=0;fontSize=17;fontColor=#666666;align=left;" vertex="1" parent="fg_MT1BBQ9zyIC7BIO2O-3">
          <mxGeometry x="130" y="60" width="250" height="26" as="geometry" />
        </mxCell>
        <mxCell id="fg_MT1BBQ9zyIC7BIO2O-6" value="" style="rounded=0;whiteSpace=wrap;html=1;" vertex="1" parent="fg_MT1BBQ9zyIC7BIO2O-3">
          <mxGeometry y="109.82" width="90" height="40.18" as="geometry" />
        </mxCell>
        <mxCell id="fg_MT1BBQ9zyIC7BIO2O-10" value="" style="shape=singleArrow;direction=west;whiteSpace=wrap;html=1;" vertex="1" parent="fg_MT1BBQ9zyIC7BIO2O-3">
          <mxGeometry x="11.659999999999997" y="119.91" width="66.67" height="20" as="geometry" />
        </mxCell>
        <mxCell id="fg_MT1BBQ9zyIC7BIO2O-11" value="" style="rounded=1;whiteSpace=wrap;html=1;strokeWidth=5;arcSize=8;" vertex="1" parent="fg_MT1BBQ9zyIC7BIO2O-3">
          <mxGeometry x="177.63" y="160" width="411.58" height="300" as="geometry" />
        </mxCell>
        <mxCell id="fg_MT1BBQ9zyIC7BIO2O-12" value="Login" style="text;html=1;strokeColor=none;fillColor=none;align=center;verticalAlign=middle;whiteSpace=wrap;rounded=0;fontFamily=Verdana;fontSize=27;fontStyle=1" vertex="1" parent="fg_MT1BBQ9zyIC7BIO2O-3">
          <mxGeometry x="340.13" y="170" width="86.58" height="30" as="geometry" />
        </mxCell>
        <mxCell id="fg_MT1BBQ9zyIC7BIO2O-13" value="Enter Email" style="rounded=0;whiteSpace=wrap;html=1;fontFamily=Verdana;align=left;" vertex="1" parent="fg_MT1BBQ9zyIC7BIO2O-3">
          <mxGeometry x="233.42" y="249.91" width="300" height="30" as="geometry" />
        </mxCell>
        <mxCell id="fg_MT1BBQ9zyIC7BIO2O-14" value="Email" style="text;html=1;strokeColor=none;fillColor=none;align=left;verticalAlign=middle;whiteSpace=wrap;rounded=0;fontFamily=Verdana;fontSize=16;" vertex="1" parent="fg_MT1BBQ9zyIC7BIO2O-3">
          <mxGeometry x="233.42000000000002" y="219.91" width="60" height="30" as="geometry" />
        </mxCell>
        <mxCell id="fg_MT1BBQ9zyIC7BIO2O-16" value="Enter Password" style="rounded=0;whiteSpace=wrap;html=1;fontFamily=Verdana;align=left;" vertex="1" parent="fg_MT1BBQ9zyIC7BIO2O-3">
          <mxGeometry x="233.41999999999996" y="320" width="300" height="30" as="geometry" />
        </mxCell>
        <mxCell id="fg_MT1BBQ9zyIC7BIO2O-17" value="Password" style="text;html=1;strokeColor=none;fillColor=none;align=left;verticalAlign=middle;whiteSpace=wrap;rounded=0;fontFamily=Verdana;fontSize=16;" vertex="1" parent="fg_MT1BBQ9zyIC7BIO2O-3">
          <mxGeometry x="233.42" y="290" width="76.58" height="30" as="geometry" />
        </mxCell>
        <mxCell id="fg_MT1BBQ9zyIC7BIO2O-18" value="" style="rounded=0;whiteSpace=wrap;html=1;" vertex="1" parent="fg_MT1BBQ9zyIC7BIO2O-3">
          <mxGeometry x="420" y="360" width="20" height="20" as="geometry" />
        </mxCell>
        <mxCell id="fg_MT1BBQ9zyIC7BIO2O-19" value="&lt;font face=&quot;Verdana&quot;&gt;Remember Me&lt;/font&gt;" style="text;html=1;strokeColor=none;fillColor=none;align=left;verticalAlign=middle;whiteSpace=wrap;rounded=0;" vertex="1" parent="fg_MT1BBQ9zyIC7BIO2O-3">
          <mxGeometry x="319" y="355" width="90" height="30" as="geometry" />
        </mxCell>
        <mxCell id="fg_MT1BBQ9zyIC7BIO2O-20" value="Login" style="rounded=1;whiteSpace=wrap;html=1;fontFamily=Verdana;fontSize=18;" vertex="1" parent="fg_MT1BBQ9zyIC7BIO2O-3">
          <mxGeometry x="338.42" y="390" width="90" height="35" as="geometry" />
        </mxCell>
      </root>
    </mxGraphModel>
  </diagram>
</mxfile>
